<mxfile host="app.diagrams.net" modified="2024-01-11T01:20:29.057Z" agent="Mozilla/5.0 (X11; Linux x86_64; rv:120.0) Gecko/20100101 Firefox/120.0" etag="rbfbCXmXtHc5AiucimnD" version="22.1.18" type="github">
  <diagram name="Page-1" id="qCO8pEl2zJ2py9bg0hVu">
    <mxGraphModel dx="1609" dy="945" grid="1" gridSize="10" guides="1" tooltips="1" connect="1" arrows="1" fold="1" page="1" pageScale="1" pageWidth="850" pageHeight="1100" math="0" shadow="0">
      <root>
        <mxCell id="0" />
        <mxCell id="1" parent="0" />
        <mxCell id="cvJQp6pP5oyXREMTl6of-4" style="edgeStyle=orthogonalEdgeStyle;rounded=0;orthogonalLoop=1;jettySize=auto;html=1;entryX=0;entryY=0.5;entryDx=0;entryDy=0;" edge="1" parent="1" source="cvJQp6pP5oyXREMTl6of-1" target="cvJQp6pP5oyXREMTl6of-2">
          <mxGeometry relative="1" as="geometry" />
        </mxCell>
        <mxCell id="cvJQp6pP5oyXREMTl6of-1" value="Temperature Sensor Driver (Firmware Implementation)" style="rounded=0;whiteSpace=wrap;html=1;" vertex="1" parent="1">
          <mxGeometry x="120" y="240" width="120" height="60" as="geometry" />
        </mxCell>
        <mxCell id="cvJQp6pP5oyXREMTl6of-5" style="edgeStyle=orthogonalEdgeStyle;rounded=0;orthogonalLoop=1;jettySize=auto;html=1;entryX=0;entryY=0.5;entryDx=0;entryDy=0;" edge="1" parent="1" source="cvJQp6pP5oyXREMTl6of-2">
          <mxGeometry relative="1" as="geometry">
            <mxPoint x="530" y="270" as="targetPoint" />
          </mxGeometry>
        </mxCell>
        <mxCell id="cvJQp6pP5oyXREMTl6of-2" value="Driver Test" style="shape=step;perimeter=stepPerimeter;whiteSpace=wrap;html=1;fixedSize=1;" vertex="1" parent="1">
          <mxGeometry x="330" y="230" width="120" height="80" as="geometry" />
        </mxCell>
        <mxCell id="cvJQp6pP5oyXREMTl6of-42" style="edgeStyle=orthogonalEdgeStyle;rounded=0;orthogonalLoop=1;jettySize=auto;html=1;entryX=0;entryY=0.25;entryDx=0;entryDy=0;" edge="1" parent="1" source="cvJQp6pP5oyXREMTl6of-6" target="cvJQp6pP5oyXREMTl6of-41">
          <mxGeometry relative="1" as="geometry">
            <Array as="points">
              <mxPoint x="1480" y="270" />
              <mxPoint x="1480" y="514" />
            </Array>
          </mxGeometry>
        </mxCell>
        <mxCell id="cvJQp6pP5oyXREMTl6of-6" value="&lt;div&gt;1D Flow Measurement&lt;/div&gt;&lt;div&gt;&amp;nbsp;Test&lt;/div&gt;" style="shape=step;perimeter=stepPerimeter;whiteSpace=wrap;html=1;fixedSize=1;" vertex="1" parent="1">
          <mxGeometry x="730" y="230" width="120" height="80" as="geometry" />
        </mxCell>
        <mxCell id="cvJQp6pP5oyXREMTl6of-32" style="edgeStyle=orthogonalEdgeStyle;rounded=0;orthogonalLoop=1;jettySize=auto;html=1;entryX=0;entryY=0.5;entryDx=0;entryDy=0;" edge="1" parent="1" source="cvJQp6pP5oyXREMTl6of-7" target="cvJQp6pP5oyXREMTl6of-25">
          <mxGeometry relative="1" as="geometry" />
        </mxCell>
        <mxCell id="cvJQp6pP5oyXREMTl6of-33" style="edgeStyle=orthogonalEdgeStyle;rounded=0;orthogonalLoop=1;jettySize=auto;html=1;entryX=0;entryY=0.25;entryDx=0;entryDy=0;" edge="1" parent="1" source="cvJQp6pP5oyXREMTl6of-7" target="cvJQp6pP5oyXREMTl6of-22">
          <mxGeometry relative="1" as="geometry" />
        </mxCell>
        <mxCell id="cvJQp6pP5oyXREMTl6of-7" value="Ring PCB Form Factor" style="whiteSpace=wrap;html=1;" vertex="1" parent="1">
          <mxGeometry x="530" y="500" width="120" height="60" as="geometry" />
        </mxCell>
        <mxCell id="cvJQp6pP5oyXREMTl6of-14" style="edgeStyle=orthogonalEdgeStyle;rounded=0;orthogonalLoop=1;jettySize=auto;html=1;entryX=0;entryY=0.75;entryDx=0;entryDy=0;" edge="1" parent="1" source="cvJQp6pP5oyXREMTl6of-9" target="cvJQp6pP5oyXREMTl6of-11">
          <mxGeometry relative="1" as="geometry">
            <Array as="points">
              <mxPoint x="500" y="410" />
              <mxPoint x="500" y="285" />
            </Array>
          </mxGeometry>
        </mxCell>
        <mxCell id="cvJQp6pP5oyXREMTl6of-31" style="edgeStyle=orthogonalEdgeStyle;rounded=0;orthogonalLoop=1;jettySize=auto;html=1;entryX=0;entryY=0.25;entryDx=0;entryDy=0;" edge="1" parent="1" source="cvJQp6pP5oyXREMTl6of-9" target="cvJQp6pP5oyXREMTl6of-7">
          <mxGeometry relative="1" as="geometry">
            <Array as="points">
              <mxPoint x="500" y="410" />
              <mxPoint x="500" y="515" />
            </Array>
          </mxGeometry>
        </mxCell>
        <mxCell id="cvJQp6pP5oyXREMTl6of-9" value="Sensor Thermal Interface Design" style="rounded=0;whiteSpace=wrap;html=1;" vertex="1" parent="1">
          <mxGeometry x="120" y="380" width="120" height="60" as="geometry" />
        </mxCell>
        <mxCell id="cvJQp6pP5oyXREMTl6of-15" style="edgeStyle=orthogonalEdgeStyle;rounded=0;orthogonalLoop=1;jettySize=auto;html=1;" edge="1" parent="1" source="cvJQp6pP5oyXREMTl6of-11" target="cvJQp6pP5oyXREMTl6of-6">
          <mxGeometry relative="1" as="geometry" />
        </mxCell>
        <mxCell id="cvJQp6pP5oyXREMTl6of-11" value="1D Flow Lab Setup" style="rounded=0;whiteSpace=wrap;html=1;" vertex="1" parent="1">
          <mxGeometry x="530" y="240" width="120" height="60" as="geometry" />
        </mxCell>
        <mxCell id="cvJQp6pP5oyXREMTl6of-30" style="edgeStyle=orthogonalEdgeStyle;rounded=0;orthogonalLoop=1;jettySize=auto;html=1;entryX=0;entryY=0.5;entryDx=0;entryDy=0;" edge="1" parent="1" source="cvJQp6pP5oyXREMTl6of-16" target="cvJQp6pP5oyXREMTl6of-7">
          <mxGeometry relative="1" as="geometry" />
        </mxCell>
        <mxCell id="cvJQp6pP5oyXREMTl6of-16" value="Assemble Well Spefications" style="rounded=0;whiteSpace=wrap;html=1;" vertex="1" parent="1">
          <mxGeometry x="120" y="500" width="120" height="60" as="geometry" />
        </mxCell>
        <mxCell id="cvJQp6pP5oyXREMTl6of-20" style="edgeStyle=orthogonalEdgeStyle;rounded=0;orthogonalLoop=1;jettySize=auto;html=1;" edge="1" parent="1" source="cvJQp6pP5oyXREMTl6of-18" target="cvJQp6pP5oyXREMTl6of-19">
          <mxGeometry relative="1" as="geometry" />
        </mxCell>
        <mxCell id="cvJQp6pP5oyXREMTl6of-18" value="Castellated Mint-Board and Footprint " style="rounded=0;whiteSpace=wrap;html=1;" vertex="1" parent="1">
          <mxGeometry x="120" y="630" width="120" height="60" as="geometry" />
        </mxCell>
        <mxCell id="cvJQp6pP5oyXREMTl6of-23" style="edgeStyle=orthogonalEdgeStyle;rounded=0;orthogonalLoop=1;jettySize=auto;html=1;" edge="1" parent="1" source="cvJQp6pP5oyXREMTl6of-19" target="cvJQp6pP5oyXREMTl6of-22">
          <mxGeometry relative="1" as="geometry" />
        </mxCell>
        <mxCell id="cvJQp6pP5oyXREMTl6of-19" value="Castellated Placement &lt;br&gt;Test" style="shape=step;perimeter=stepPerimeter;whiteSpace=wrap;html=1;fixedSize=1;" vertex="1" parent="1">
          <mxGeometry x="340" y="620" width="120" height="80" as="geometry" />
        </mxCell>
        <mxCell id="cvJQp6pP5oyXREMTl6of-35" style="edgeStyle=orthogonalEdgeStyle;rounded=0;orthogonalLoop=1;jettySize=auto;html=1;entryX=0;entryY=0.5;entryDx=0;entryDy=0;" edge="1" parent="1" source="cvJQp6pP5oyXREMTl6of-22" target="cvJQp6pP5oyXREMTl6of-34">
          <mxGeometry relative="1" as="geometry" />
        </mxCell>
        <mxCell id="cvJQp6pP5oyXREMTl6of-22" value="Ring PCB Design &amp;amp; Build w/ Castellated Mini-board" style="rounded=0;whiteSpace=wrap;html=1;" vertex="1" parent="1">
          <mxGeometry x="730" y="630" width="120" height="60" as="geometry" />
        </mxCell>
        <mxCell id="cvJQp6pP5oyXREMTl6of-28" value="" style="edgeStyle=orthogonalEdgeStyle;rounded=0;orthogonalLoop=1;jettySize=auto;html=1;" edge="1" parent="1" source="cvJQp6pP5oyXREMTl6of-25" target="cvJQp6pP5oyXREMTl6of-27">
          <mxGeometry relative="1" as="geometry" />
        </mxCell>
        <mxCell id="cvJQp6pP5oyXREMTl6of-25" value="Design Potting Mold" style="whiteSpace=wrap;html=1;" vertex="1" parent="1">
          <mxGeometry x="730" y="500" width="120" height="60" as="geometry" />
        </mxCell>
        <mxCell id="cvJQp6pP5oyXREMTl6of-36" style="edgeStyle=orthogonalEdgeStyle;rounded=0;orthogonalLoop=1;jettySize=auto;html=1;entryX=0;entryY=0.25;entryDx=0;entryDy=0;" edge="1" parent="1" source="cvJQp6pP5oyXREMTl6of-27" target="cvJQp6pP5oyXREMTl6of-34">
          <mxGeometry relative="1" as="geometry" />
        </mxCell>
        <mxCell id="cvJQp6pP5oyXREMTl6of-27" value="Potting &lt;br&gt;Mold Test" style="shape=step;perimeter=stepPerimeter;whiteSpace=wrap;html=1;fixedSize=1;" vertex="1" parent="1">
          <mxGeometry x="920" y="490" width="120" height="80" as="geometry" />
        </mxCell>
        <mxCell id="cvJQp6pP5oyXREMTl6of-40" style="edgeStyle=orthogonalEdgeStyle;rounded=0;orthogonalLoop=1;jettySize=auto;html=1;entryX=0;entryY=0.5;entryDx=0;entryDy=0;" edge="1" parent="1" source="cvJQp6pP5oyXREMTl6of-34" target="cvJQp6pP5oyXREMTl6of-39">
          <mxGeometry relative="1" as="geometry" />
        </mxCell>
        <mxCell id="cvJQp6pP5oyXREMTl6of-34" value="Assemble Waterproof&amp;nbsp; Sensor Ring" style="rounded=0;whiteSpace=wrap;html=1;" vertex="1" parent="1">
          <mxGeometry x="1130" y="630" width="120" height="60" as="geometry" />
        </mxCell>
        <mxCell id="cvJQp6pP5oyXREMTl6of-43" style="edgeStyle=orthogonalEdgeStyle;rounded=0;orthogonalLoop=1;jettySize=auto;html=1;" edge="1" parent="1" source="cvJQp6pP5oyXREMTl6of-37" target="cvJQp6pP5oyXREMTl6of-41">
          <mxGeometry relative="1" as="geometry" />
        </mxCell>
        <mxCell id="cvJQp6pP5oyXREMTl6of-37" value="2D Flow Lab Setup" style="whiteSpace=wrap;html=1;" vertex="1" parent="1">
          <mxGeometry x="1310" y="500" width="120" height="60" as="geometry" />
        </mxCell>
        <mxCell id="cvJQp6pP5oyXREMTl6of-44" style="edgeStyle=orthogonalEdgeStyle;rounded=0;orthogonalLoop=1;jettySize=auto;html=1;entryX=0;entryY=0.75;entryDx=0;entryDy=0;" edge="1" parent="1" source="cvJQp6pP5oyXREMTl6of-39" target="cvJQp6pP5oyXREMTl6of-41">
          <mxGeometry relative="1" as="geometry">
            <Array as="points">
              <mxPoint x="1480" y="660" />
              <mxPoint x="1480" y="546" />
            </Array>
          </mxGeometry>
        </mxCell>
        <mxCell id="cvJQp6pP5oyXREMTl6of-39" value="System Test &lt;br&gt;While &lt;br&gt;Submerged" style="shape=step;perimeter=stepPerimeter;whiteSpace=wrap;html=1;fixedSize=1;" vertex="1" parent="1">
          <mxGeometry x="1320" y="620" width="120" height="80" as="geometry" />
        </mxCell>
        <mxCell id="cvJQp6pP5oyXREMTl6of-46" style="edgeStyle=orthogonalEdgeStyle;rounded=0;orthogonalLoop=1;jettySize=auto;html=1;" edge="1" parent="1" source="cvJQp6pP5oyXREMTl6of-41" target="cvJQp6pP5oyXREMTl6of-45">
          <mxGeometry relative="1" as="geometry" />
        </mxCell>
        <mxCell id="cvJQp6pP5oyXREMTl6of-41" value="2D Flow Test" style="shape=step;perimeter=stepPerimeter;whiteSpace=wrap;html=1;fixedSize=1;" vertex="1" parent="1">
          <mxGeometry x="1520" y="490" width="120" height="80" as="geometry" />
        </mxCell>
        <mxCell id="cvJQp6pP5oyXREMTl6of-45" value="3D Sensor &lt;br&gt;Assembly Design" style="whiteSpace=wrap;html=1;" vertex="1" parent="1">
          <mxGeometry x="1700" y="500" width="120" height="60" as="geometry" />
        </mxCell>
        <mxCell id="cvJQp6pP5oyXREMTl6of-47" value="3D Flow Test" style="shape=step;perimeter=stepPerimeter;whiteSpace=wrap;html=1;fixedSize=1;" vertex="1" parent="1">
          <mxGeometry x="1880" y="490" width="120" height="80" as="geometry" />
        </mxCell>
        <mxCell id="cvJQp6pP5oyXREMTl6of-48" style="edgeStyle=orthogonalEdgeStyle;rounded=0;orthogonalLoop=1;jettySize=auto;html=1;entryX=0.117;entryY=0.488;entryDx=0;entryDy=0;entryPerimeter=0;" edge="1" parent="1" source="cvJQp6pP5oyXREMTl6of-45" target="cvJQp6pP5oyXREMTl6of-47">
          <mxGeometry relative="1" as="geometry" />
        </mxCell>
      </root>
    </mxGraphModel>
  </diagram>
</mxfile>
